
<svg xmlns="http://www.w3.org/2000/svg" version="1.1" xmlns:xlink="http://www.w3.org/1999/xlink" preserveAspectRatio="none" x="0px" y="0px" width="640px" height="640px" viewBox="0 0 640 640">
<defs>
<g id="Dial_0_Layer3_0_FILL">
<path fill="#7C808F" stroke="none" d="
M 8.8 -130.9
L 18.9 -138.2 9.1 -170.7 -8.95 -170.7 -18.8 -138.15 -8.65 -130.9 8.8 -130.9 Z"/>
</g>

<g id="Dial_0_Layer2_0_FILL">
<path fill="#7C808F" stroke="none" d="
M -7.8 -139.2
Q -55.0419921875 -136.871484375 -90.5 -106.15 -94.626953125 -102.5677734375 -98.6 -98.6 -139.4 -57.75 -139.4 0 -139.4 57.75 -98.6 98.55 -57.75 139.4 0 139.4 57.75 139.4 98.55 98.55 109.7298828125 87.3837890625 117.85 74.95 139.4 41.944921875 139.4 0 139.4 -41.944921875 117.85 -75 109.7298828125 -87.4201171875 98.55 -98.6 94.5822265625 -102.5677734375 90.45 -106.15 55.0419921875 -136.871484375 7.8 -139.2 3.95 -139.4 0 -139.4 -3.95 -139.4 -7.8 -139.2
M -72.85 -72.8
Q -45.45 -100.15 -7.8 -102.7 -3.95 -102.95 0 -102.95 3.95 -102.95 7.8 -102.7 45.5 -100.15 72.85 -72.8 103.05 -42.65 103.05 0.05 103.05 42.7 72.85 72.85 42.7 103.05 0 103.05 -42.65 103.05 -72.85 72.85 -103 42.7 -103 0.05 -103 -42.65 -72.85 -72.8 Z"/>
</g>

<g id="Dial_0_Layer2_1_FILL">
<path fill="#686B7A" stroke="none" d="
M -32.8 135.8
L -23.35 100.55
Q -26.76796875 99.8220703125 -30.1 98.85
L -39.55 134.05
Q -36.1873046875 135.01640625 -32.8 135.8
M -119.2 72.85
L -87.6 54.6
Q -89.5044921875 51.653125 -91.2 48.55
L -122.8 66.8
Q -121.0734375 69.88515625 -119.2 72.85
M -98.8 30.1
Q -99.7912109375 26.763671875 -100.55 23.3
L -135.8 32.75
Q -135.015625 36.20390625 -134.05 39.55
L -98.8 30.1
M -48.6 91.15
Q -51.637109375 89.5134765625 -54.6 87.6
L -72.85 119.2
Q -69.8662109375 121.0896484375 -66.8 122.75
L -48.6 91.15
M -70.35 75.3
Q -71.6048828125 74.0951171875 -72.85 72.85 -74.0927734375 71.6072265625 -75.3 70.35
L -101.05 96.05
Q -99.82890625 97.32109375 -98.6 98.55 -97.3439453125 99.8060546875 -96.1 101
L -70.35 75.3
M -102.95 -3.5
L -139.35 -3.5
Q -139.4 -1.7578125 -139.4 0 -139.4 1.758203125 -139.4 3.5
L -102.95 3.5
Q -103 1.7857421875 -103 0.05 -103 -1.7357421875 -102.95 -3.5
M -134.05 -39.6
Q -135.0125 -36.2146484375 -135.8 -32.8
L -100.55 -23.35
Q -99.791015625 -26.78046875 -98.8 -30.15
L -134.05 -39.6
M -87.6 -54.6
L -119.25 -72.9
Q -121.0912109375 -69.8908203125 -122.8 -66.85
L -91.15 -48.6
Q -89.4853515625 -51.636328125 -87.6 -54.6
M -98.6 -98.6
Q -99.8421875 -97.35625 -101.05 -96.1
L -75.3 -70.35
Q -74.0822265625 -71.5677734375 -72.85 -72.8 -71.5912109375 -74.0564453125 -70.3 -75.25
L -96.1 -101.05
Q -97.3560546875 -99.8423828125 -98.6 -98.6
M -32.75 -135.8
Q -36.1990234375 -135.0095703125 -39.6 -134.05
L -30.15 -98.75
Q -26.76171875 -99.745703125 -23.3 -100.5
L -32.75 -135.8
M -66.85 -122.8
Q -69.88984375 -121.0779296875 -72.9 -119.2
L -54.6 -87.55
Q -51.6208984375 -89.451953125 -48.55 -91.15
L -66.85 -122.8
M 32.75 135.8
Q 36.1986328125 135.00859375 39.55 134.05
L 30.15 98.85
Q 26.7880859375 99.844140625 23.3 100.6
L 32.75 135.8
M 0 139.4
Q 1.7580078125 139.4 3.5 139.35
L 3.5 103
Q 1.7609375 103.05 0 103.05 -1.760546875 103.05 -3.5 103
L -3.5 139.35
Q -1.7580078125 139.4 0 139.4
M 54.65 87.6
Q 51.6578125 89.5248046875 48.55 91.2
L 66.8 122.75
Q 69.877734375 121.0548828125 72.85 119.15
L 54.65 87.6
M 98.55 98.55
Q 99.79375 97.3078125 101 96.05
L 75.3 70.35
Q 74.09609375 71.605859375 72.85 72.85 71.6060546875 74.0958984375 70.35 75.3
L 96.05 101
Q 97.3078125 99.79375 98.55 98.55
M 87.6 54.6
L 119.2 72.85
Q 121.05859375 69.873828125 122.75 66.8
L 91.15 48.6
Q 89.5201171875 51.6642578125 87.6 54.6
M 134.05 39.55
Q 135.0107421875 36.2099609375 135.8 32.75
L 100.6 23.35
Q 99.8396484375 26.787109375 98.85 30.1
L 134.05 39.55
M 139.35 -3.5
L 103 -3.5
Q 103.05 -1.7359375 103.05 0.05 103.05 1.785546875 103 3.5
L 139.35 3.5
Q 139.4 1.7578125 139.4 0 139.4 -1.7576171875 139.35 -3.5
M 98.8 -30.15
Q 99.8220703125 -26.7728515625 100.55 -23.35
L 135.8 -32.75
Q 135.01171875 -36.1947265625 134.05 -39.6
L 98.8 -30.15
M 119.2 -72.9
L 87.6 -54.65
Q 89.503125 -51.6515625 91.15 -48.6
L 122.75 -66.85
Q 121.0728515625 -69.8841796875 119.2 -72.9
M 70.3 -75.25
Q 71.5923828125 -74.0576171875 72.85 -72.8 74.08359375 -71.568359375 75.25 -70.35
L 101 -96.1
Q 99.8056640625 -97.3443359375 98.55 -98.6 97.3228515625 -99.8271484375 96.05 -101.05
L 70.3 -75.25
M 72.9 -119.2
Q 69.9087890625 -121.0498046875 66.85 -122.75
L 48.55 -91.1
Q 51.6470703125 -89.4380859375 54.6 -87.55
L 72.9 -119.2
M 0 -102.95
Q 1.7599609375 -102.95 3.5 -102.9
L 3.5 -139.35
Q 1.7599609375 -139.4 0 -139.4 -1.7599609375 -139.4 -3.5 -139.35
L -3.5 -102.9
Q -1.7599609375 -102.95 0 -102.95
M 32.8 -135.8
L 23.35 -100.5
Q 26.7916015625 -99.74609375 30.1 -98.75
L 39.55 -134.05
Q 36.2365234375 -134.9916015625 32.8 -135.8 Z"/>
</g>

<g id="Dial_0_Layer1_0_FILL">
<path fill="#7C808F" stroke="none" d="
M -8.4 -110.1
Q -48.7 -107.35 -78.1 -78 -110.45 -45.7 -110.45 0.1 -110.45 45.85 -78.1 78.15 -45.75 110.55 0 110.55 45.8 110.55 78.1 78.15 110.5 45.85 110.5 0.1 110.5 -45.7 78.1 -78 48.75 -107.35 8.4 -110.1 4.2 -110.35 0 -110.35 -4.2 -110.35 -8.4 -110.1 Z"/>
</g>

<g id="Dial_0_Layer0_0_FILL">
<path fill="#A1ABB5" stroke="none" d="
M 7.4 -97.4
Q 3.75 -97.6 0 -97.6 -3.75 -97.6 -7.4 -97.4 -43.1 -94.95 -69.1 -69 -97.7 -40.4 -97.7 0.1 -97.7 40.55 -69.1 69.15 -40.45 97.8 0 97.8 40.5 97.8 69.1 69.15 97.75 40.55 97.75 0.1 97.75 -40.4 69.1 -69 43.15 -94.95 7.4 -97.4
M 6.7 -88
Q 7.05 -87.95 7.4 -87.95
L 7.4 -46.7
Q 7.35 -43.85 5.2 -41.7 3.05 -39.5 0 -39.5 -3.05 -39.5 -5.2 -41.7 -7.35 -43.85 -7.4 -46.7
L -7.4 -87.95
Q -7.05 -87.95 -6.7 -88 -3.35 -88.2 0 -88.2 3.35 -88.2 6.7 -88 Z"/>

<path fill="#FFFFFF" stroke="none" d="
M 7.4 -87.95
Q 7.05 -87.95 6.7 -88 3.35 -88.2 0 -88.2 -3.35 -88.2 -6.7 -88 -7.05 -87.95 -7.4 -87.95
L -7.4 -46.7
Q -7.35 -43.85 -5.2 -41.7 -3.05 -39.5 0 -39.5 3.05 -39.5 5.2 -41.7 7.35 -43.85 7.4 -46.7
L 7.4 -87.95 Z"/>
</g>
</defs>

<g transform="matrix( 1.7390289306640625, 0, 0, 1.7390289306640625, 320,343.15) ">
<g transform="matrix( 1, 0, 0, 1, 0,4.7) ">
<use xlink:href="#Dial_0_Layer3_0_FILL"/>
</g>

<g transform="matrix( 1, 0, 0, 1, 0,0) ">
<use xlink:href="#Dial_0_Layer2_0_FILL"/>
</g>

<g transform="matrix( 1, 0, 0, 1, 0,0) ">
<use xlink:href="#Dial_0_Layer2_1_FILL"/>
</g>

<g transform="matrix( 1, 0, 0, 1, 0,0) ">
<use xlink:href="#Dial_0_Layer1_0_FILL"/>
</g>

<g transform="matrix( 1, 0, 0, 1, 0,0) ">
<use xlink:href="#Dial_0_Layer0_0_FILL"/>
</g>
</g>
</svg>
