
<svg xmlns="http://www.w3.org/2000/svg" version="1.1" xmlns:xlink="http://www.w3.org/1999/xlink" preserveAspectRatio="none" x="0px" y="0px" width="640px" height="640px" viewBox="0 0 640 640">
<defs>
<g id="Layer0_0_FILL">
<path fill="#AE61FC" stroke="none" d="
M -25.05 -25.05
L -25.1 -25
Q -35.3517578125 -14.6720703125 -35.35 0 -35.3373046875 11.8306640625 -28.65 20.8 -27.07265625 22.9015625 -25.1 24.95
L -25.1 24.95
Q -14.6837890625 35.35546875 0 35.35 14.6875 35.3453125 24.95 24.95 27.02109375 22.85390625 28.7 20.6 35.337890625 11.678515625 35.35 0 35.344140625 -14.6677734375 24.95 -25
L 24.95 -25.05
Q 14.6693359375 -35.342578125 0 -35.35 -14.670703125 -35.353125 -25.05 -25.05
M -22.25 -22.2
L -22.25 -22.2
Q -13.01171875 -31.3470703125 0 -31.35 13.012890625 -31.357421875 22.1 -22.2
L 22.15 -22.2
Q 31.355859375 -13.0146484375 31.35 0 31.3619140625 10.3212890625 25.5 18.2 23.9787109375 20.2462890625 22.1 22.15 13.0125 31.3546875 0 31.35 -13.01640625 31.3443359375 -22.25 22.1
L -22.25 22.15
Q -24.02734375 20.2984375 -25.45 18.4 -31.3630859375 10.469140625 -31.35 0 -31.3486328125 -13.009765625 -22.25 -22.2 Z"/>
</g>
</defs>

<g transform="matrix( 8.36773681640625, 0, 0, 8.36773681640625, 320,320) ">
<use xlink:href="#Layer0_0_FILL"/>
</g>
</svg>
