
<svg xmlns="http://www.w3.org/2000/svg" version="1.1" xmlns:xlink="http://www.w3.org/1999/xlink" preserveAspectRatio="none" x="0px" y="0px" width="640px" height="640px" viewBox="0 0 640 640">
<defs>
<g id="Layer1_0_FILL">
<path fill="#C5C3CA" stroke="none" d="
M 119.9 287.35
Q 118.85 288.35 117.8 289.4 116.75 290.45 115.75 291.5 83.85 324.85 83.3 371.25
L 83.3 372.6
Q 83.3 372.7 83.3 372.8 83.3 372.9 83.3 373
L 83.35 375.75
Q 84.3 421.25 115.8 454.1 116.8 455.15 117.8 456.15 118.85 457.2 119.95 458.25 129.25 467.15 139.6 473.65 140.45 474.2 141.3 474.7 141.75 474.95 142.2 475.25 143.45 475.95 144.7 476.65 169.4 490.35 199.6 490.7
L 200.95 490.7
Q 201.05 490.7 201.2 490.7
L 202.7 490.7
Q 233.45 490.35 258.5 476.2
L 261.35 474.55
Q 262.1 474.1 262.85 473.6 273.15 467.1 282.45 458.2 283.5 457.2 284.55 456.15 285.6 455.1 286.6 454.05 294.75 445.55 300.85 436.2 301.45 435.3 302 434.4 303.6 431.9 305 429.35 311.3 418.05 314.8 405.55
L 315.1 404.4
Q 315.35 403.4 315.6 402.4 315.85 401.45 316.05 400.55 318.8 388.65 319.05 375.75
L 319.1 373.2
Q 319.1 373 319.1 372.8
L 319.1 371.35
Q 318.75 341 305.05 316.35
L 305.05 316.3
Q 304.35 315 303.55 313.75
L 302 311.2
Q 301.45 310.3 300.85 309.4 294.75 300.1 286.65 291.55 285.6 290.45 284.55 289.4 283.55 288.4 282.5 287.4 280.15 285.15 277.7 283 247.75 257.05 207.8 255.05 205.25 254.95 202.7 254.9
L 199.75 254.9
Q 197.15 254.95 194.6 255.05 154.65 257.05 124.65 283 122.25 285.1 119.9 287.35 Z"/>
</g>
</defs>

<g transform="matrix( 2.05621337890625, 0, 0, 2.05621337890625, -93.7,-384.55) ">
<use xlink:href="#Layer1_0_FILL"/>
</g>
</svg>
